<?xml version="1.0" encoding="UTF-8" standalone="no"?>
<!-- Created with Inkscape (http://www.inkscape.org/) -->

<svg
   version="1.1"
   id="svg1"
   width="800"
   height="800"
   viewBox="420 120 798.0322 798.03238"
   xmlns="http://www.w3.org/2000/svg"
   xmlns:svg="http://www.w3.org/2000/svg">
  <defs
     id="defs1">
    <clipPath
       clipPathUnits="userSpaceOnUse"
       id="clipPath47">
      <path
         d="M 0,792 H 1224 V 0 H 0 Z"
         transform="translate(-690.02152,-313.44821)"
         id="path47" />
    </clipPath>
    <clipPath
       clipPathUnits="userSpaceOnUse"
       id="clipPath49">
      <path
         d="M 0,792 H 1224 V 0 H 0 Z"
         transform="translate(-620.59862,-445.82621)"
         id="path49" />
    </clipPath>
    <clipPath
       clipPathUnits="userSpaceOnUse"
       id="clipPath51">
      <path
         d="M 0,792 H 1224 V 0 H 0 Z"
         transform="translate(-604.41602,-429.03171)"
         id="path51" />
    </clipPath>
    <clipPath
       clipPathUnits="userSpaceOnUse"
       id="clipPath53">
      <path
         d="M 0,792 H 1224 V 0 H 0 Z"
         transform="translate(-605.02442,-375.88281)"
         id="path53" />
    </clipPath>
    <clipPath
       clipPathUnits="userSpaceOnUse"
       id="clipPath55">
      <path
         d="M 0,792 H 1224 V 0 H 0 Z"
         transform="translate(-617.72852,-379.05661)"
         id="path55" />
    </clipPath>
  </defs>
  <g
     id="layer-MC0"
     transform="translate(-1.3592339,3.4828193)">
    <path
       id="path1"
       d="M 0,0 -75.857,131.388 0,262.776 H 151.715 L 227.572,131.388 151.715,0 Z"
       style="fill:#ffffff;fill-opacity:1;fill-rule:nonzero;stroke:#000000;stroke-width:12;stroke-linecap:butt;stroke-linejoin:miter;stroke-miterlimit:10;stroke-dasharray:none;stroke-opacity:1"
       transform="matrix(1.3333333,0,0,-1.3333333,728.83067,699.57027)" />
    <path
       id="path2"
       d="m 12.492805,-13.017499 c 1.32563,-0.0018 2.379627,0.364608 3.159694,1.104747 0.780067,0.74014 1.16824,1.727252 1.172206,2.9582442 0.0056,1.3017716 -0.398627,2.2950627 -1.205127,2.9767806 -0.810343,0.6832643 -1.990662,1.0241168 -3.5448,1.0241039 l -7.7445329,-0.00165 0.00208,4.95631046 L 2.1796123,6.6092152e-4 2.175479,-13.020236 Z m -0.380367,6.0926623 c 1.66415,-0.00405 2.500693,-0.6665937 2.504239,-1.9899259 -0.0063,-1.4198694 -0.888213,-2.1301874 -2.644703,-2.1336474 l -7.6445059,0.0028 0.0035,4.1161498 z m 0,0"
       style="fill:#000000;fill-opacity:1;fill-rule:nonzero;stroke:none"
       aria-label="P"
       transform="matrix(0.52280811,1.22656,-1.22656,0.52280811,523.47067,642.22467)" />
    <path
       id="path3"
       d="m 16.825315,-4.2029658 c -0.0014,1.3524872 -0.6624,2.447787 -1.982882,3.28589954 -1.342459,0.87951671 -3.134211,1.31823492 -5.3687097,1.3163139 C 7.2352639,0.39854086 5.4346966,-0.03973567 4.0694338,-0.91695547 2.7400811,-1.7618479 2.0773386,-2.8565764 2.0837942,-4.1997675 l -0.00585,-8.8125055 2.1652057,-0.005 0.00275,8.2934394 c -0.00245,1.0169531 0.4425202,1.7970877 1.3323319,2.3390301 0.8977342,0.5395139 2.1978478,0.8083491 3.8963793,0.8077197 1.6985319,-6.293e-4 2.9868829,-0.2720406 3.8676429,-0.8128603 0.885934,-0.5380727 1.328148,-1.3149785 1.330601,-2.3319317 l -0.0028,-8.2934392 2.149361,-1.5e-4 z m 0,0"
       style="fill:#000000;fill-opacity:1;fill-rule:nonzero;stroke:none"
       aria-label="U"
       transform="matrix(0.62510397,1.1777193,-1.1777193,0.62510397,533.98173,666.60867)" />
    <path
       id="path4"
       d="M 16.938515,-0.00128607 14.438902,-7.8413115e-4 10.9052,-4.9566109 l -6.5658975,0.00544 4.46e-4,4.95697579 -2.1616214,-0.00396115 -0.00283,-13.01488374 10.2617779,10e-4 c 1.35948,-0.0025 2.429692,0.3661 3.20977,1.101785 0.788182,0.733952 1.183264,1.729883 1.18033,2.9846066 -0.0024,1.1084457 -0.316549,1.9975367 -0.946413,2.6681392 -0.601194,0.6263424 -1.41265,1.0222393 -2.431907,1.1892835 z M 12.120961,-6.9197021 c 1.665058,-4.6e-5 2.497336,-0.6651951 2.495969,-1.999499 -0.0041,-1.4163429 -0.905703,-2.1260439 -2.699966,-2.1259169 l -7.5833349,0.0026 0.00896,4.1247404 z m 0,0"
       style="fill:#000000;fill-opacity:1;fill-rule:nonzero;stroke:none"
       aria-label="R"
       transform="matrix(0.72488772,1.1190691,-1.1190691,0.72488772,547.71613,692.08853)" />
    <path
       id="path5"
       d="M 15.791022,1.4847951e-4 2.1797014,-0.00536724 2.1773118,-13.030804 l 13.1097402,0.0034 0.0039,1.971325 -10.9533707,0.0022 0.00213,3.3167366 7.6201967,0.00203 0.0039,1.9713254 -7.6201972,-0.00203 -0.00923,3.8111598 11.4549512,-1.405e-4 z m 0,0"
       style="fill:#000000;fill-opacity:1;fill-rule:nonzero;stroke:none"
       aria-label="E"
       transform="matrix(0.81431836,1.0557762,-1.0557762,0.81431836,562.9928,715.332)" />
    <path
       id="path6"
       d="m 8.049464,-6.3854744 c -2.542e-4,0.845711 -0.3254351,1.584324 -0.9776834,2.2138392 -0.6162487,0.5909803 -1.3711438,0.8840476 -2.2666853,0.8813426 -0.9015415,0.00372 -1.6618727,-0.2896326 -2.2852753,-0.8840505 -0.6639374,-0.6282767 -0.9937086,-1.365341 -0.9955952,-2.213052 6.767e-4,-0.8332886 0.33428,-1.5680425 1.00281,-2.2064026 0.5999671,-0.5821353 1.357003,-0.8732026 2.2752485,-0.8733427 0.8955416,0.0027 1.6558728,0.2960551 2.276712,0.8760505 0.645515,0.6351218 0.9690046,1.370327 0.9704687,2.2056155 z m 0,0"
       style="fill:#000000;fill-opacity:1;fill-rule:nonzero;stroke:none"
       aria-label=" •"
       transform="matrix(0.91021512,0.9743132,-0.9743132,0.91021512,585.61587,743.2468)" />
    <path
       id="path7"
       d="m 15.796381,-0.00134819 -13.6227179,-2.7249e-4 0.00519,-13.01641332 13.1244399,0.0034 -0.01078,1.966801 -10.9658993,-0.006 0.00762,3.3127515 7.6122903,0.00281 -0.003,1.9755718 -7.6122906,-0.00281 0.00298,3.8022592 11.4641776,0.00283 z m 0,0"
       style="fill:#000000;fill-opacity:1;fill-rule:nonzero;stroke:none"
       aria-label=" E"
       transform="matrix(0.99789124,0.88430246,-0.88430246,0.99789124,603.7748,762.09507)" />
    <path
       id="path8"
       d="M 16.324616,-0.00129617 13.521483,-1.0789658e-4 8.2747853,-5.2605271 3.0378379,-0.00217962 0.23470435,-9.9134376e-4 6.8716484,-6.5946997 0.46605778,-13.021257 l 2.80313352,-0.0012 5.0118081,5.0853257 5.0030886,-5.0818797 2.803134,-0.0012 -6.396027,6.4265947 z m 0,0"
       style="fill:#000000;fill-opacity:1;fill-rule:nonzero;stroke:none"
       aria-label="X"
       transform="matrix(1.0643163,0.80312431,-0.80312431,1.0643163,623.41347,779.29693)" />
    <path
       id="path9"
       d="m 17.364508,-10.056018 -1.958074,0.6963821 c -1.316619,-1.3929861 -3.161551,-2.0918301 -5.5341428,-2.0900111 -1.8011833,0.0012 -3.2675283,0.46668 -4.4005998,1.393858 -1.1312472,0.919095 -1.6973161,2.091046 -1.7022482,3.5149409 0.00211,1.467959 0.5606114,2.6537392 1.6779735,3.5557758 1.1254452,0.9038609 2.6406471,1.3605132 4.5505592,1.3668274 2.2986721,-0.00364 4.1076021,-0.7166888 5.4267881,-2.1391599 l 1.840925,1.0271139 C 16.344876,-1.642651 15.290012,-0.85497677 14.09953,-0.36974496 12.912178,0.12044056 11.500043,0.36451272 9.8646898,0.36494838 7.5644525,0.366107 5.6514809,-0.21005143 4.1298166,-1.3626148 2.3887227,-2.6815059 1.5176702,-4.4114145 1.5197884,-6.5473867 c 0.00447,-2.0993387 0.8853221,-3.8097493 2.645949,-5.1368363 1.5371912,-1.165146 3.4371325,-1.745102 5.7032131,-1.745474 3.2495875,-0.0014 5.7481065,1.123169 7.4955575,3.373679 z m 0,0"
       style="fill:#000000;fill-opacity:1;fill-rule:nonzero;stroke:none"
       aria-label="C"
       transform="matrix(1.1272424,0.71211123,-0.71211123,1.1272424,644.0228,794.73573)" />
    <path
       id="path10"
       d="M 15.79882,0.00210446 2.181567,0.00222815 2.175157,-13.017402 l 13.114035,-0.0027 0.0048,1.965463 -10.9597616,0.0053 -0.00526,3.3179134 7.6156486,-0.010184 0.0048,1.9654629 -7.6156482,0.010184 0.0026,3.8157256 11.4629792,-0.0028 z m 0,0"
       style="fill:#000000;fill-opacity:1;fill-rule:nonzero;stroke:none"
       aria-label="E"
       transform="matrix(1.1830065,0.61503934,-0.61503934,1.1830065,668.444,809.91733)" />
    <path
       id="path11"
       d="M 14.375137,9.6671079e-4 2.1790201,-2.2267576e-4 2.1826663,-13.025722 l 2.1527112,-0.0022 -0.00147,11.0620595 10.0434055,0.00342 z m 0,0"
       style="fill:#000000;fill-opacity:1;fill-rule:nonzero;stroke:none"
       aria-label="L"
       transform="matrix(1.2261073,0.52386893,-0.52386893,1.2261073,691.67973,821.78453)" />
    <path
       id="path12"
       d="M 14.382127,0.00104407 2.1819228,8.9879746e-4 2.1842391,-13.018358 l 2.1568863,-0.0013 0.00221,11.0587252 10.0433166,0.00147 z m 0,0"
       style="fill:#000000;fill-opacity:1;fill-rule:nonzero;stroke:none"
       aria-label="L"
       transform="matrix(1.26023,0.43542854,-0.43542854,1.26023,713.00067,830.75973)" />
    <path
       id="path13"
       d="m 15.796881,-0.00697322 -13.6179787,0.00301549 -0.00447,-13.02389627 13.1121677,0.0087 0.0093,1.972526 -10.9547417,-0.006 -2.531e-4,3.3199447 7.6204858,-0.00265 -0.005,1.9641693 -7.6204856,0.00265 -0.00583,3.8060644 11.4605526,-0.00574 z m 0,0"
       style="fill:#000000;fill-opacity:1;fill-rule:nonzero;stroke:none"
       aria-label="E"
       transform="matrix(1.2895804,0.33876273,-0.33876273,1.2895804,734.96613,838.26307)" />
    <path
       id="path14"
       d="M 16.960282,-0.00587698 14.297797,0.00426159 4.3427259,-10.68519 4.3411036,-0.00414217 2.1775842,0.00265216 2.1769908,-13.021119 l 2.676035,-5.96e-4 9.9319792,10.6934591 -3.82e-4,-10.6925931 2.175066,-0.0088 z m 0,0"
       style="fill:#000000;fill-opacity:1;fill-rule:nonzero;stroke:none"
       aria-label="N"
       transform="matrix(1.3136932,0.22800843,-0.22800843,1.3136932,760.33133,844.82813)" />
    <path
       id="path15"
       d="m 14.952171,-11.055247 -6.2119544,0.01162 0.00415,11.04889752 -2.1654311,-0.00320144 -0.00415,-11.04889808 -6.21301559,-5.3e-5 0.009566,-1.965969 14.59040109,-0.0084 z m 0,0"
       style="fill:#000000;fill-opacity:1;fill-rule:nonzero;stroke:none"
       aria-label="T"
       transform="matrix(1.3278586,0.12070296,-0.12070296,1.3278586,789.08467,849.56253)" />
    <path
       id="path16"
       d="m 8.0527517,-6.3886608 c -0.0039,0.843924 -0.3317806,1.5846872 -0.9836887,2.2193603 -0.6086809,0.5900212 -1.3628118,0.8835328 -2.2594633,0.8804873 -0.8995333,-6.87e-5 -1.6632086,-0.2953469 -2.288144,-0.8888115 -0.6664205,-0.6220928 -1.0006575,-1.357983 -0.9968997,-2.210695 0.00111,-0.8350887 0.332018,-1.5700407 0.9955959,-2.207833 0.6059415,-0.5782565 1.3689078,-0.8689813 2.2830876,-0.86915 0.8966515,0.00305 1.6514914,0.2955368 2.2645197,0.8774741 0.6577751,0.6310232 0.9861059,1.3640791 0.9849925,2.1991678 z m 0,0"
       style="fill:#000000;fill-opacity:1;fill-rule:nonzero;stroke:none"
       aria-label=" •"
       transform="matrix(1.3331582,0.02161084,-0.02161084,1.3331582,822.474,851.7376)" />
    <path
       id="path17"
       d="m 10.410089,-13.021569 c 2.261277,-0.0038 4.053492,0.599736 5.379273,1.813768 1.32344,1.2079135 1.988631,2.821965 1.994999,4.8479859 -0.0032,1.8543321 -0.700357,3.401807 -2.094662,4.6450529 -1.322445,1.14140536 -2.944794,1.71157437 -4.867046,1.71050702 L 2.1786581,0.00332242 2.1788705,-13.020406 Z m 0.592876,11.0685716 c 1.294915,0.004 2.360109,-0.4091315 3.195582,-1.2393836 0.836047,-0.8360833 1.250813,-1.9079887 1.247787,-3.2212599 0.0015,-1.3893631 -0.444614,-2.5078577 -1.341062,-3.3586867 -0.890904,-0.8473384 -2.058736,-1.2745034 -3.501154,-1.2753764 l -6.2652327,0.0065 -0.00112,9.0906086 z m 0,0"
       style="fill:#000000;fill-opacity:1;fill-rule:nonzero;stroke:none"
       aria-label=" D"
       transform="matrix(1.3269028,-0.13079257,0.13079257,1.3269028,849.02667,851.5032)" />
    <path
       id="path18"
       d="m 15.791553,0.00176354 -13.6093232,-0.00325088 3.64e-4,-13.01397666 13.1082942,0.0059 -0.0061,1.965285 -10.9522425,-2.85e-4 0.00653,3.3143077 7.6170205,-0.00897 -0.0061,1.9652848 -7.6170204,0.00897 0.00918,3.8153375 11.4532714,-0.00236 z m 0,0"
       style="fill:#000000;fill-opacity:1;fill-rule:nonzero;stroke:none"
       aria-label="E"
       transform="matrix(1.3110836,-0.24256438,0.24256438,1.3110836,878.0924,848.418)" />
    <path
       id="path19"
       d="m 14.378501,-0.00329273 -12.1942135,-0.00170182 0.00159,-13.01853445 2.1574276,10e-4 -0.00618,11.0656887 10.0367869,6.574e-4 z m 0,0"
       style="fill:#000000;fill-opacity:1;fill-rule:nonzero;stroke:none"
       aria-label="L"
       transform="matrix(1.2889859,-0.34101777,0.34101777,1.2889859,903.694,843.4896)" />
    <path
       id="path20"
       d="M 4.3350394,-0.00509403 2.1782246,8.9456818e-4 2.1786341,-13.014464 l 2.1568148,-0.006 z m 0,0"
       style="fill:#000000;fill-opacity:1;fill-rule:nonzero;stroke:none"
       aria-label="I"
       transform="matrix(1.2689206,-0.40941204,0.40941204,1.2689206,925.73173,837.418)" />
    <path
       id="path21"
       d="m 17.360372,-10.063817 -1.951953,0.7063925 c -1.317643,-1.3894045 -3.165208,-2.0867435 -5.5383122,-2.0871465 -1.7969685,-7.4e-4 -3.2629837,0.462151 -4.3959035,1.383218 -1.1335046,0.9145415 -1.6990336,2.0899375 -1.6993138,3.5251166 0.00157,1.4705301 0.5606598,2.6595719 1.6827144,3.5692674 1.1214699,0.9031707 2.634008,1.3556087 4.5414123,1.3556581 2.2958778,0.00469 4.1063288,-0.7100628 5.4269688,-2.1491406 l 1.849636,1.0286459 C 16.342356,-1.6378937 15.28042,-0.84947224 14.093612,-0.36819704 12.911187,0.11794712 11.5031,0.36122753 9.8655529,0.36330004 7.5637351,0.36571532 5.6532678,-0.21154133 4.1379491,-1.3701258 2.394248,-2.6845106 1.524459,-4.4047699 1.5225434,-6.5395706 c 0.00481,-2.1038325 0.889039,-3.8181874 2.6488999,-5.1414094 1.5317945,-1.167289 3.4328242,-1.752043 5.699291,-1.752605 3.2533777,0.0031 5.7520987,1.126124 7.4896377,3.369768 z m 0,0"
       style="fill:#000000;fill-opacity:1;fill-rule:nonzero;stroke:none"
       aria-label="C"
       transform="matrix(1.2410391,-0.48744193,0.48744193,1.2410391,937.22,833.86973)" />
    <path
       id="path22"
       d="m 4.3320391,0.00184535 -2.1443983,-0.00457438 -0.00302,-13.02284297 2.1443983,0.0046 z m 0,0"
       style="fill:#000000;fill-opacity:1;fill-rule:nonzero;stroke:none"
       aria-label="I"
       transform="matrix(1.2083444,-0.56363243,0.56363243,1.2083444,963.55733,823.13867)" />
    <path
       id="path23"
       d="m 18.217199,-6.5213482 c -0.0022,2.1356607 -0.878328,3.8603894 -2.628262,5.1741861 -1.53537,1.14728857 -3.444303,1.71974358 -5.7216575,1.72017567 C 7.570285,0.37272576 5.6512135,-0.20893771 4.1152064,-1.3691662 2.3567534,-2.6843891 1.4836684,-4.4037469 1.4882396,-6.5314557 c 3.209e-4,-2.0832879 0.8864507,-3.7958493 2.6637709,-5.1414183 1.5613505,-1.176491 3.4656219,-1.76485 5.7179558,-1.762266 2.2602857,2.53e-4 4.1569067,0.586338 5.6884577,1.760825 1.771512,1.352412 2.656525,3.0682736 2.658775,5.1529668 z m -2.254905,-0.00399 c -0.0044,-1.5249431 -0.651386,-2.7600922 -1.94092,-3.7054478 -1.114766,-0.813085 -2.498801,-1.219119 -4.156081,-1.216935 -1.8092568,-7.65e-4 -3.2817957,0.469689 -4.4148061,1.406221 -1.1379117,0.9271754 -1.7078828,2.0980511 -1.7073428,3.5140329 -0.0056,1.4760665 0.5474296,2.6631953 1.6576703,3.5639572 1.1153819,0.9035725 2.6038877,1.356701 4.4655171,1.3593855 1.8419895,0.00196 3.3177845,-0.4500153 4.4287905,-1.3585102 1.113816,-0.9136362 1.668603,-2.0994903 1.667172,-3.5627036 z m 0,0"
       style="fill:#000000;fill-opacity:1;fill-rule:nonzero;stroke:none"
       aria-label="O"
       transform="matrix(1.169927,-0.63956909,0.63956909,1.169927,974.54947,818.20253)" />
    <path
       id="path24"
       d="m 16.823373,-4.1995045 c 2.6e-5,1.3472104 -0.657517,2.4442061 -1.967759,3.29424905 C 13.511198,-0.03579306 11.715236,0.39706098 9.4701613,0.3949376 7.2405173,0.39610136 5.4376962,-0.03967851 4.0681962,-0.9115739 2.7457656,-1.7589801 2.083722,-2.8550715 2.0836964,-4.2022818 l 0.00809,-8.8112882 2.1613978,-0.0046 -3.517e-4,8.2945247 c -0.00243,1.0140583 0.4401805,1.7902918 1.3302569,2.3303313 0.8949438,0.5433013 2.1903122,0.8153563 3.8853023,0.8121003 1.6982263,0.00244 2.9900173,-0.2674858 3.8696753,-0.8065396 0.887788,-0.5406595 1.335743,-1.3196367 1.33817,-2.3336951 l 3.52e-4,-8.2945246 2.154874,0.0052 z m 0,0"
       style="fill:#000000;fill-opacity:1;fill-rule:nonzero;stroke:none"
       aria-label="U"
       transform="matrix(1.107627,-0.74225349,0.74225349,1.107627,1000.8112,803.62307)" />
    <path
       id="path25"
       d="m 13.571389,-9.9618257 c -1.928985,-0.9791593 -3.8929751,-1.4687353 -5.8919689,-1.4687263 -1.3277821,1.57e-4 -2.3484827,0.155735 -3.0579843,0.466275 -0.7035548,0.307792 -1.0597792,0.739418 -1.0645556,1.2944163 0.00347,0.5728389 0.3793009,0.9894844 1.1316174,1.2494771 0.5326681,0.1969537 1.4148683,0.3319778 2.6466008,0.4050724 1.7972723,0.1162994 2.9850886,0.2068009 3.5652786,0.2692157 1.619798,0.2257336 2.819655,0.6296446 3.60415,1.2153912 0.780377,0.586206 1.171043,1.4160036 1.170627,2.4957991 -0.0012,1.3904657 -0.613339,2.4613931 -1.834166,3.21461142 C 12.621531,-0.0734817 10.868409,0.29930906 8.5797921,0.30036706 5.2589629,0.29778438 2.6739795,-0.4330852 0.82255333,-1.8940708 L 2.0077777,-3.4520861 c 2.0384629,1.2504305 4.2344886,1.8767032 6.5876178,1.8747003 1.5158335,0.00387 2.6925275,-0.2107982 3.5300835,-0.6440186 0.804173,-0.3961442 1.207469,-0.9476668 1.207139,-1.6605145 -0.004,-0.8208256 -0.532755,-1.3746625 -1.585686,-1.6573932 C 11.201478,-5.6827277 9.7194354,-5.8321158 7.3030938,-5.9856474 5.151218,-6.1228298 3.6476078,-6.40947 2.7876862,-6.8492263 1.7808641,-7.3538855 1.2780944,-8.1982725 1.2784583,-9.3906229 c 0.00401,-1.2156871 0.5782392,-2.1781591 1.7208482,-2.8851301 1.1448975,-0.705141 2.7607677,-1.056364 4.8512688,-1.058246 2.8015197,7.8e-5 5.1448797,0.639093 7.0341967,1.916588 z m 0,0"
       style="fill:#000000;fill-opacity:1;fill-rule:nonzero;stroke:none"
       aria-label="S"
       transform="matrix(1.0415434,-0.83244533,0.83244533,1.0415434,1024.7083,787.3528)" />
    <path
       id="path26"
       d="m 8.0557571,-6.3918671 c -0.0024,0.8453727 -0.3339444,1.5843817 -0.9904182,2.2211004 -0.6097019,0.5841371 -1.3630785,0.8785463 -2.2559871,0.8831581 -0.9033693,-0.00143 -1.6623969,-0.2911985 -2.2854375,-0.8733135 -0.673516,-0.6268503 -1.0092125,-1.371247 -1.0070199,-2.2290475 0.00261,-0.8329448 0.3363282,-1.5657747 0.9991201,-2.1963836 0.6137751,-0.5883492 1.3774735,-0.8850034 2.2891281,-0.8837138 0.8950146,-0.00258 1.6457569,0.2873337 2.2522965,0.8738692 0.6653697,0.6352745 0.9988212,1.3693494 0.998318,2.2043307 z m 0,0"
       style="fill:#000000;fill-opacity:1;fill-rule:nonzero;stroke:none"
       aria-label=" •"
       transform="matrix(0.95848223,-0.92687087,0.92687087,0.95848223,1052.2227,764.2572)" />
    <path
       id="path27"
       d="M 14.383373,-0.0030768 2.186052,0.00171882 2.1832749,-13.018002 l 2.1519467,-3.96e-4 0.0044,11.0673274 10.0453744,-0.0044 z m 0,0"
       style="fill:#000000;fill-opacity:1;fill-rule:nonzero;stroke:none"
       aria-label=" L"
       transform="matrix(0.87148968,-1.0091003,1.0091003,0.87148968,1070.6908,745.77867)" />
    <path
       id="path28"
       d="m 18.204629,-6.5322187 c 0.0018,2.1365048 -0.869804,3.8628566 -2.614875,5.1790553 C 14.05232,-0.19971141 12.143297,0.37617889 9.8708712,0.37577805 7.5667862,0.37675402 5.646492,-0.20421579 4.1117179,-1.3647666 2.3660907,-2.6796246 1.4908664,-4.4023942 1.492504,-6.5341695 c -0.00253,-2.0779154 0.8859341,-3.7911725 2.6589236,-5.1386785 1.5610808,-1.170747 3.4696454,-1.75719 5.7239646,-1.761695 2.2642368,-8.7e-4 4.1604248,0.586842 5.6885638,1.763134 1.757557,1.346059 2.636417,3.0589102 2.640673,5.1391903 z m -2.24786,0.00341 c -10e-4,-1.5200445 -0.644265,-2.7518999 -1.933773,-3.6962013 -1.114056,-0.818548 -2.496701,-1.230143 -4.1526665,-1.231327 -1.8060742,0.007 -3.2813601,0.476161 -4.4282226,1.409298 -1.1404035,0.9320439 -1.7100158,2.1035925 -1.7112017,3.5163759 -0.00143,1.4819261 0.5538033,2.6728756 1.6680716,3.5711191 1.1224567,0.8995141 2.6124698,1.3487324 4.4700392,1.347655 1.836463,-1.595e-4 3.311573,-0.4547017 4.420599,-1.3601676 1.107297,-0.9078306 1.662439,-2.0942029 1.667154,-3.5567521 z m 0,0"
       style="fill:#000000;fill-opacity:1;fill-rule:nonzero;stroke:none"
       aria-label="O"
       transform="matrix(0.78710222,-1.0762193,1.0762193,0.78710222,1085.9121,728.13213)" />
    <path
       id="path29"
       d="m 17.364257,-10.054 -1.958574,0.6999961 c -1.315737,-1.3965291 -3.16162,-2.0944651 -5.5416674,-2.0948071 -1.7946989,0.0064 -3.2581885,0.46659 -4.3914683,1.384548 -1.1342793,0.9219788 -1.6994623,2.0964272 -1.695549,3.5233451 -5.504e-4,1.4706359 0.5587363,2.6556428 1.6768605,3.5590415 1.1226561,0.9109293 2.6356036,1.368139 4.5438626,1.368608 2.2941226,-0.00608 4.1069686,-0.7209501 5.4355186,-2.1496455 l 1.836274,1.0285526 c -0.932078,1.0875137 -1.990167,1.87473782 -3.174265,2.36167225 C 12.914171,0.11926573 11.503656,0.36633698 9.8637021,0.36852471 7.5730893,0.36906823 5.6630559,-0.20819687 4.1295812,-1.3642701 2.3893964,-2.6763257 1.5208896,-4.4035528 1.5220619,-6.5379098 1.515238,-8.6401001 2.3997568,-10.35208 4.1741074,-11.676361 c 1.5303756,-1.167195 3.4257973,-1.750541 5.6872647,-1.75406 3.2618249,-3.32e-4 5.7639569,1.123298 7.5028849,3.376421 z m 0,0"
       style="fill:#000000;fill-opacity:1;fill-rule:nonzero;stroke:none"
       aria-label="C"
       transform="matrix(0.68751894,-1.1424078,1.1424078,0.68751894,1103.4772,703.78453)" />
    <path
       id="path30"
       d="M 16.754252,-0.00593802 14.406295,3.3721584e-4 12.894179,-2.9125736 4.1419123,-2.914917 2.6247835,7.0226815e-6 0.27165186,-0.00423189 7.1609967,-13.021424 l 2.7042901,0.0012 z M 11.826794,-4.8688608 8.5172744,-11.168147 5.1918288,-4.8684407 Z m 0,0"
       style="fill:#000000;fill-opacity:1;fill-rule:nonzero;stroke:none"
       aria-label="A"
       transform="matrix(0.58881281,-1.1962764,1.1962764,0.58881281,1118.1303,679.0384)" />
    <path
       id="path31"
       d="M 14.382376,0.00282931 2.1830522,-0.00419343 2.1784996,-13.019552 l 2.1500123,0.0091 0.00289,11.059029 10.0493111,-0.00203 z m 0,0"
       style="fill:#000000;fill-opacity:1;fill-rule:nonzero;stroke:none"
       aria-label="L"
       transform="matrix(0.49624137,-1.2375469,1.2375469,0.49624137,1129.5664,655.36387)" />
    <text
       id="text31"
       xml:space="preserve"
       transform="matrix(0.54906303,-1.215034,1.215034,0.54906303,621.4792,465.8652)"><tspan
         style="font-variant:normal;font-weight:900;font-stretch:normal;font-size:74.8851px;font-family:'Avenir Next';writing-mode:lr-tb;fill:#000000;fill-opacity:1;fill-rule:nonzero;stroke:none"
         x="0"
         y="0"
         id="tspan31">P</tspan></text>
    <text
       id="text32"
       xml:space="preserve"
       transform="matrix(0.87261407,-1.0081282,1.0081282,0.87261407,648.8164,405.97267)"><tspan
         style="font-variant:normal;font-weight:900;font-stretch:normal;font-size:74.8852px;font-family:'Avenir Next';writing-mode:lr-tb;fill:#000000;fill-opacity:1;fill-rule:nonzero;stroke:none"
         x="0"
         y="0"
         id="tspan32">E</tspan></text>
    <text
       id="text33"
       xml:space="preserve"
       transform="matrix(1.1382991,-0.69430028,0.69430028,1.1382991,685.12173,361.19467)"><tspan
         style="font-variant:normal;font-weight:900;font-stretch:normal;font-size:74.8852px;font-family:'Avenir Next';writing-mode:lr-tb;fill:#000000;fill-opacity:1;fill-rule:nonzero;stroke:none"
         x="0"
         y="0"
         id="tspan33">D</tspan></text>
    <text
       id="text34"
       xml:space="preserve"
       transform="matrix(1.2930067,-0.32544036,0.32543858,1.2930067,750.52347,322.89187)"><tspan
         style="font-variant:normal;font-weight:900;font-stretch:normal;font-size:74.8852px;font-family:'Avenir Next';writing-mode:lr-tb;fill:#000000;fill-opacity:1;fill-rule:nonzero;stroke:none"
         x="0"
         y="0"
         id="tspan34">L</tspan></text>
    <text
       id="text35"
       xml:space="preserve"
       transform="matrix(1.2582007,0.44125826,-0.44125826,1.2582007,861.57427,308.4492)"><tspan
         style="font-variant:normal;font-weight:900;font-stretch:normal;font-size:74.8852px;font-family:'Avenir Next';writing-mode:lr-tb;fill:#000000;fill-opacity:1;fill-rule:nonzero;stroke:none"
         x="0"
         y="0"
         id="tspan35">H</tspan></text>
    <text
       id="text36"
       xml:space="preserve"
       transform="matrix(1.0976355,0.75695052,-0.75695052,1.0976355,934.1576,336.64773)"><tspan
         style="font-variant:normal;font-weight:900;font-stretch:normal;font-size:74.8852px;font-family:'Avenir Next';writing-mode:lr-tb;fill:#000000;fill-opacity:1;fill-rule:nonzero;stroke:none"
         x="0"
         y="0"
         id="tspan36">I</tspan></text>
    <text
       id="text37"
       xml:space="preserve"
       transform="matrix(0.87486413,1.0061762,-1.0061762,0.87486413,965.12693,355.0104)"><tspan
         style="font-variant:normal;font-weight:900;font-stretch:normal;font-size:74.8852px;font-family:'Avenir Next';writing-mode:lr-tb;fill:#000000;fill-opacity:1;fill-rule:nonzero;stroke:none"
         x="0"
         y="0"
         id="tspan37">V</tspan></text>
    <text
       id="text38"
       xml:space="preserve"
       transform="matrix(0.5506899,1.2142975,-1.2142975,0.5506899,1010.0749,407.07493)"><tspan
         style="font-variant:normal;font-weight:900;font-stretch:normal;font-size:74.8852px;font-family:'Avenir Next';writing-mode:lr-tb;fill:#000000;fill-opacity:1;fill-rule:nonzero;stroke:none"
         x="0"
         y="0"
         id="tspan38">E</tspan></text>
    <text
       id="text39"
       xml:space="preserve"
       transform="matrix(0.40731837,1.2695942,-1.2695942,0.40731837,540.19667,578.7396)"><tspan
         style="font-variant:normal;font-weight:900;font-stretch:normal;font-size:74.8852px;font-family:'Avenir Next';writing-mode:lr-tb;fill:#000000;fill-opacity:1;fill-rule:nonzero;stroke:none"
         x="0"
         y="0"
         id="tspan39">R</tspan></text>
    <text
       id="text40"
       xml:space="preserve"
       transform="matrix(0.77251566,1.086737,-1.086737,0.77251566,568.13213,659.93293)"><tspan
         style="font-variant:normal;font-weight:900;font-stretch:normal;font-size:74.8852px;font-family:'Avenir Next';writing-mode:lr-tb;fill:#000000;fill-opacity:1;fill-rule:nonzero;stroke:none"
         x="0"
         y="0"
         id="tspan40">A</tspan></text>
    <text
       id="text41"
       xml:space="preserve"
       transform="matrix(1.1172942,0.72762041,-0.72762041,1.1172942,623.51893,737.056)"><tspan
         style="font-variant:normal;font-weight:900;font-stretch:normal;font-size:74.8852px;font-family:'Avenir Next';writing-mode:lr-tb;fill:#000000;fill-opacity:1;fill-rule:nonzero;stroke:none"
         x="0"
         y="0"
         id="tspan41">W</tspan></text>
    <text
       id="text42"
       xml:space="preserve"
       transform="matrix(1.3325157,-0.04668656,0.04668656,1.3325157,796.1172,814.24347)"><tspan
         style="font-variant:normal;font-weight:900;font-stretch:normal;font-size:74.8852px;font-family:'Avenir Next';writing-mode:lr-tb;fill:#000000;fill-opacity:1;fill-rule:nonzero;stroke:none"
         x="0"
         y="0"
         id="tspan42">H</tspan></text>
    <text
       id="text43"
       xml:space="preserve"
       transform="matrix(1.2396292,-0.49101654,0.49101654,1.2396292,892.43227,808.53707)"><tspan
         style="font-variant:normal;font-weight:900;font-stretch:normal;font-size:74.8852px;font-family:'Avenir Next';writing-mode:lr-tb;fill:#000000;fill-opacity:1;fill-rule:nonzero;stroke:none"
         x="0"
         y="0"
         id="tspan43">O</tspan></text>
    <text
       id="text44"
       xml:space="preserve"
       transform="matrix(1.0056833,-0.87543064,0.87543064,1.0056833,985.49613,768.10027)"><tspan
         style="font-variant:normal;font-weight:900;font-stretch:normal;font-size:74.8852px;font-family:'Avenir Next';writing-mode:lr-tb;fill:#000000;fill-opacity:1;fill-rule:nonzero;stroke:none"
         x="0"
         y="0"
         id="tspan44">N</tspan></text>
    <text
       id="text45"
       xml:space="preserve"
       transform="matrix(0.71856682,-1.1231382,1.1231382,0.71856682,1052.8652,705.17387)"><tspan
         style="font-variant:normal;font-weight:900;font-stretch:normal;font-size:74.8852px;font-family:'Avenir Next';writing-mode:lr-tb;fill:#000000;fill-opacity:1;fill-rule:nonzero;stroke:none"
         x="0"
         y="0"
         id="tspan45">E</tspan></text>
    <text
       id="text46"
       xml:space="preserve"
       transform="matrix(0.38463126,-1.2766505,1.2766487,0.38463126,1091.5807,643.07747)"><tspan
         style="font-variant:normal;font-weight:900;font-stretch:normal;font-size:74.8852px;font-family:'Avenir Next';writing-mode:lr-tb;fill:#000000;fill-opacity:1;fill-rule:nonzero;stroke:none"
         x="0"
         y="0"
         id="tspan46">Y</tspan></text>
    <path
       id="path46"
       d="m 0,0 c -17.348,0 -31.497,14.442 -31.497,32.149 0,8.918 3.692,17.582 10.161,23.575 4.1,-11.293 9.784,-16.938 17.088,-22.859 0,-2.444 1.699,-4.351 3.99,-4.351 2.291,0 4.158,1.907 4.158,4.245 0,2.256 -1.754,4.147 -4.06,4.246 -9.506,7.81 -12.51,12.949 -15.6,22.913 4.565,2.75 10.224,4.381 15.76,4.381 17.35,0 31.498,-14.442 31.498,-32.15 C 31.498,14.442 17.35,0 0,0 m -120.896,34.612 16.785,22.254 c 8.699,-7.742 9.781,-17.037 9.846,-26.689 z m -4.747,-34.613 c -17.348,0 -31.498,14.443 -31.498,32.15 0,17.708 14.15,32.152 31.498,32.152 5.538,0 11.943,-1.334 16.618,-4.128 l -17.097,-23.168 c -2.09,-0.033 -3.911,-1.942 -3.911,-4.246 0,-2.338 1.87,-4.245 4.159,-4.245 0.635,0 1.301,0.166 1.863,0.436 L -95.38,23.346 C -98.943,9.795 -111.616,-0.001 -125.643,-0.001 M 0,71.855 c -6.229,0 -12.611,-1.551 -18.008,-4.496 l -10.371,29.204 h 12.022 c 4.115,0 7.465,-3.35 7.465,-7.467 0,-4.117 -3.35,-7.467 -7.465,-7.467 h -2.52 v -5.038 h 2.52 c 6.894,0 12.503,5.609 12.503,12.505 0,6.894 -5.609,12.504 -12.503,12.504 H -35.4 c -0.061,-0.249 -0.125,-0.497 -0.19,-0.746 l 1.228,-4.291 h 0.012 l 3.076,-11.126 h -10.443 c -1.287,-2.365 -2.72,-4.672 -4.289,-6.901 l 16.824,-0.022 0.848,-2.647 C -28.543,75.655 -65.145,33.608 -65.145,33.608 l 0.416,5.094 h 1.872 l 0.209,2.762 h -7.281 l -0.208,-2.973 h 1.665 l -0.624,-4.67 -7.412,22.932 c -0.458,-0.076 -0.916,-0.147 -1.374,-0.203 -1.673,-0.206 -3.292,-0.311 -4.814,-0.311 -0.405,0 -0.8,0.01 -1.189,0.024 l 9.313,-28.995 -12.366,1.28 c 0.042,0.965 0.194,2.515 0.194,3.601 0,11.012 -3.49,21.714 -12.962,30.608 l 0.462,0.564 c -0.789,1.033 -1.411,2.088 -1.9,3.102 -0.476,0.988 -0.877,2.041 -1.206,3.152 l -2.725,-3.445 c -6.076,3.766 -13.426,5.725 -20.568,5.725 -21.424,0 -38.899,-17.835 -38.899,-39.706 0,-21.869 17.475,-39.705 38.899,-39.705 17.626,0 33.125,12.409 37.68,29.557 l 11.848,-2.173 c 0.507,-1.426 1.688,-2.518 3.101,-3.374 l -2.113,-10.23 h -2.704 l -0.208,-2.76 8.526,-0.424 v 2.972 h -2.08 l 2.576,10.223 c 3.833,0.641 5.841,3.989 4.7,7.313 l 38.701,44.679 1.733,-4.795 C -33.275,55.88 -38.898,44.249 -38.898,32.149 -38.898,10.28 -21.424,-7.556 0,-7.556 21.426,-7.556 38.9,10.28 38.9,32.149 38.9,54.02 21.426,71.855 0,71.855"
       style="fill:#000000;fill-opacity:1;fill-rule:nonzero;stroke:none"
       transform="matrix(1.3333333,0,0,-1.3333333,920.02867,638.06907)"
       clip-path="url(#clipPath47)" />
    <path
       id="path48"
       d="M 0,0 C 13.927,6.963 -10.95,54.203 -27.036,50.383 -47.436,45.541 -23.35,-7.374 0,0"
       style="fill:#ffffff;fill-opacity:1;fill-rule:nonzero;stroke:none"
       transform="matrix(1.3333333,0,0,-1.3333333,827.4648,461.56507)"
       clip-path="url(#clipPath49)" />
    <path
       id="path50"
       d="m 0,0 c -0.219,-0.011 -0.439,-0.02 -0.662,-0.029 -16.202,-0.653 -43.564,2.484 -46.754,14.259 -0.22,0.813 -0.326,1.667 -0.305,2.564 0.328,13.486 19.456,12.084 33.999,9.422 -0.122,0.2 -0.242,0.406 -0.363,0.615 -1.799,3.108 -3.488,7.083 -4.823,11.387 -5.022,16.193 -5.031,37.034 12.97,33.876 9.745,-1.71 22.661,-18.48 26.886,-31.509 0.298,-0.919 0.555,-1.819 0.762,-2.694 1.522,-6.425 3.168,-11.55 4.946,-17.633 0.058,-0.198 0.115,-0.396 0.174,-0.596 4.097,6.144 0.016,52.274 26.218,47.516 2.274,-0.413 3.661,-1.92 4.369,-3.93 2.157,-6.135 -2.044,-16.966 -6.827,-15.731 -2.979,0.767 -4.174,2.506 -4.765,4.61 -0.669,2.383 -0.559,5.236 -1.38,7.678 -0.002,-10e-4 -0.004,-0.002 -0.007,-0.002 -6.833,-2.116 -8.692,-17.095 -8.795,-25.277 -0.004,-0.25 -0.005,-0.495 -0.005,-0.733 17.569,14.412 43.022,10.843 47.692,-3.1 0.174,-0.522 0.324,-1.058 0.44,-1.61 C 87.023,13.499 68.021,0.036 49.36,-0.41 49.8,-26.151 28.996,-54.312 7.579,-56.937 -5.106,-58.493 -11.655,-53.627 -13.969,-45.843 -17.712,-33.256 -10.377,-13.036 0,0"
       style="fill:#ffffff;fill-opacity:1;fill-rule:nonzero;stroke:none"
       transform="matrix(1.3333333,0,0,-1.3333333,805.888,483.95773)"
       clip-path="url(#clipPath51)" />
    <path
       id="path52"
       d="m 0,0 c 1.498,-0.21 3.13,-0.168 4.88,0.155 2.398,0.443 5.017,1.415 7.824,3.019 -3.156,3.353 -16.95,15.444 -21.622,19.443 -0.051,0.044 -0.1,0.085 -0.148,0.126 -0.124,0.107 -0.24,0.206 -0.349,0.298 C -13.238,11.573 -9.039,1.267 0,0"
       style="fill:#ffffff;fill-opacity:1;fill-rule:nonzero;stroke:none"
       transform="matrix(1.3333333,0,0,-1.3333333,806.6992,554.82293)"
       clip-path="url(#clipPath53)" />
    <path
       id="path54"
       d="m 0,0 c -2.807,-1.604 -5.426,-2.576 -7.824,-3.019 -1.75,-0.323 -3.382,-0.365 -4.88,-0.155 -9.039,1.267 -13.238,11.573 -9.415,23.041 0.109,-0.092 0.225,-0.191 0.348,-0.298 0.049,-0.041 0.098,-0.082 0.149,-0.126 m 3.33,11.526 c 0.393,2.736 5.113,10.871 7.393,13.564 l 0.047,0.057 0.066,-0.037 c 0.013,-0.007 0.025,-0.015 0.038,-0.022 0.032,0.04 0.065,0.082 0.098,0.119 6.51,-3.643 22.12,-19.047 28.879,-25.397 0.017,-0.467 -0.148,-1.045 -0.45,-1.69 C 16.352,14.218 10.972,8.94 7.639,7.525 L 7.571,7.496 7.53,7.557 c -4.25,6.16 -13.505,13.283 -19.628,17.997 -4.239,3.263 -6.274,4.857 -6.194,5.415 m -39.056,36.824 c 1.436,11.266 51.613,1.844 45.47,-9.625 -4.709,-7.988 -46.904,-1.639 -45.47,9.625 m 33.182,49.36 C -8.08,120.973 16.797,73.733 2.87,66.77 -20.48,59.396 -44.565,112.31 -24.166,117.153 M 9.244,61.537 c 7.033,0 13.992,-4.096 17.726,-10.435 3.604,-6.12 3.657,-13.264 0.143,-19.601 l -0.055,-0.102 -0.084,0.08 c -3.488,3.313 -20.209,17.185 -27.35,23.109 -1.248,1.035 -2.206,1.829 -2.753,2.286 l -0.085,0.07 0.086,0.069 c 3.71,2.959 7.988,4.524 12.372,4.524 M 23.76,72.914 C 25.809,87.66 56.529,93.395 63.083,77.83 69.639,62.264 22.734,45.469 23.76,72.914 M -5.733,-6.962 c 21.417,2.625 42.22,30.786 41.781,56.527 18.661,0.446 37.663,13.909 34.409,29.494 -0.115,0.551 -0.266,1.087 -0.439,1.609 -4.67,13.943 -30.123,17.512 -47.693,3.101 0,0.237 0.001,0.482 0.005,0.732 0.104,8.183 1.963,23.161 8.796,25.277 0.003,0 0.005,10e-4 0.007,0.002 0.82,-2.442 0.711,-5.295 1.38,-7.677 0.591,-2.104 1.786,-3.844 4.764,-4.611 4.784,-1.235 8.985,9.596 6.827,15.731 -0.708,2.01 -2.094,3.517 -4.369,3.93 -26.202,4.758 -22.121,-41.372 -26.217,-47.516 -0.059,0.2 -0.117,0.398 -0.174,0.596 -1.779,6.083 -3.424,11.208 -4.947,17.633 -0.207,0.875 -0.463,1.775 -0.761,2.694 -4.226,13.029 -17.142,29.799 -26.887,31.509 -18,3.158 -17.992,-17.683 -12.969,-33.876 1.335,-4.304 3.024,-8.278 4.822,-11.387 0.121,-0.209 0.242,-0.415 0.363,-0.615 -14.542,2.663 -33.671,4.064 -33.998,-9.421 -0.022,-0.897 0.084,-1.751 0.304,-2.564 3.19,-11.776 30.552,-14.913 46.754,-14.26 0.223,0.009 0.444,0.018 0.662,0.029 C -23.69,36.939 -31.025,16.719 -27.282,4.132 c 2.315,-7.784 8.864,-12.65 21.549,-11.094"
       style="fill:#000000;fill-opacity:1;fill-rule:nonzero;stroke:none"
       transform="matrix(1.3333333,0,0,-1.3333333,823.638,550.5912)"
       clip-path="url(#clipPath55)" />
    <path
       id="path56"
       d="m 15.070295,-10.545417 c -1.822265,-0.952149 -3.802734,-1.429688 -5.9414059,-1.429688 -3.1113282,0 -4.6640625,0.556641 -4.6640625,1.664063 0,0.6503904 0.5800781,1.0751951 1.7460937,1.2773436 1.59375,0.1347656 3.1875,0.2783203 4.7812497,0.4335937 2.296875,0.2285156 3.928711,0.6328125 4.898438,1.21875 1.078125,0.65625 1.617187,1.6523438 1.617187,2.9882813 0,1.5 -0.673828,2.6601562 -2.015625,3.48046871 -1.344726,0.8203125 -3.290039,1.23046875 -5.8359372,1.23046875 -3.6035156,0 -6.4804687,-0.8203125 -8.6367187,-2.46093746 l 1.4882812,-1.9335938 c 1.921875,1.3535156 4.2890625,2.0273438 7.1015625,2.0273438 1.5761722,0 2.8007812,-0.1992188 3.6679692,-0.5976563 0.867187,-0.4042969 1.300781,-0.9404297 1.300781,-1.6054687 0,-0.75 -0.533203,-1.2714844 -1.59375,-1.5703125 -0.594727,-0.1699219 -1.517578,-0.2871094 -2.765625,-0.3515625 -1.9394533,-0.084961 -3.1289064,-0.1523438 -3.5742189,-0.1992188 -1.7285157,-0.1640625 -3,-0.5332031 -3.8203125,-1.1132812 -0.8203125,-0.5771485 -1.2304688,-1.4208985 -1.2304688,-2.5312496 0,-1.335938 0.65625,-2.393555 1.96875,-3.175782 1.3125,-0.779297 3.1523438,-1.171875 5.5195313,-1.171875 3.1552729,0 5.7128909,0.685547 7.6757809,2.050782 z M 26.384748,0.00145781 H 23.65428 V -14.002448 h 2.730468 z m 23.835938,0 H 46.142561 L 36.626936,-11.682136 V 0.00145781 H 33.896467 V -14.002448 h 4.078125 l 9.515625,11.6835933 V -14.002448 h 2.730469 z M 74.490217,-10.627448 71.982405,-9.7719797 c -1.5,-1.4824223 -3.404297,-2.2265623 -5.707032,-2.2265623 -1.992187,0 -3.583007,0.46289 -4.769531,1.382812 -1.180664,0.9140628 -1.769531,2.1035159 -1.769531,3.5625003 0,1.5 0.588867,2.7070313 1.769531,3.6210938 1.186524,0.9082031 2.791992,1.359375 4.816406,1.359375 2.334961,0 4.236329,-0.7646485 5.707032,-2.296875 l 2.34375,1.2539062 c -2.0625,2.32031251 -4.769532,3.48046876 -8.121094,3.48046876 -2.797852,0 -5.05957,-0.69140625 -6.785156,-2.07421876 -1.719727,-1.3886719 -2.578125,-3.1699219 -2.578125,-5.34375 0,-2.2646484 0.978515,-4.1074223 2.941406,-5.5312503 1.693359,-1.248047 3.779297,-1.875 6.257812,-1.875 3.47461,0 6.275391,1.277344 8.402344,3.832032 z M 96.114241,0.00145781 H 81.043928 V -14.002448 h 14.554688 v 2.484375 H 83.774397 v 2.9999996 h 8.226562 v 2.484375 h -8.226562 v 3.5507812 h 12.339844 z m 0,0"
       style="fill:#000000;fill-opacity:1;fill-rule:nonzero;stroke:none"
       aria-label="since "
       transform="matrix(1.3333333,0,0,1.3333333,477.33987,531.6504)" />
    <path
       id="path57"
       d="M 17.437099,0.00145781 H 0.7027243 c 0.1875,-4.08398441 2.4726563,-6.81152341 6.8554688,-8.17968751 0.09375,-0.023437 1.0898437,-0.2929687 2.9882809,-0.8085937 1.045899,-0.2871094 1.828125,-0.5771485 2.34375,-0.8671875 0.788086,-0.4453121 1.183594,-1.0371091 1.183594,-1.7812501 0,-0.773437 -0.392578,-1.397461 -1.171875,-1.875 -0.782227,-0.474609 -1.87207,-0.714844 -3.2695312,-0.714844 -2.3671875,0 -4.5175781,0.767578 -6.4453125,2.296875 l -1.734375,-1.828125 c 2.5224609,-1.951172 5.2646484,-2.929687 8.2265625,-2.929687 2.1708982,0 3.9375002,0.492187 5.2968752,1.476562 1.365234,0.984375 2.050781,2.238282 2.050781,3.761719 0,2.1738282 -1.450195,3.6650391 -4.347656,4.4765626 -1.078125,0.2519531 -2.666016,0.6679687 -4.7578127,1.2539062 -1.96875,0.6884766 -3.2988281,1.7666016 -3.984375,3.234375 H 17.437099 Z M 41.073818,-8.2368234 c 0,2.3378906 -0.852539,4.3330078 -2.554687,5.9882812 -1.69629,1.64941408 -3.732422,2.47265626 -6.105469,2.47265626 -2.384766,0 -4.40625,-0.81445312 -6.070313,-2.44921876 -1.719726,-1.6875 -2.578125,-3.6914062 -2.578125,-6.0117187 0,-2.3115236 0.867188,-4.3066406 2.601563,-5.9882816 1.664062,-1.623047 3.679687,-2.4375 6.046875,-2.4375 2.396484,0 4.423828,0.814453 6.082031,2.4375 1.716797,1.681641 2.578125,3.676758 2.578125,5.9882816 z m -2.753906,0 c 0,-1.7636716 -0.550781,-3.2021486 -1.652344,-4.3124996 -1.101562,-1.116211 -2.519531,-1.675782 -4.253906,-1.675782 -1.728516,0 -3.140625,0.559571 -4.242188,1.675782 -1.101562,1.110351 -1.652343,2.548828 -1.652343,4.3124996 0,1.743164 0.55371,3.1757812 1.664062,4.3007812 1.107422,1.125 2.519531,1.6875 4.230469,1.6875 1.716797,0 3.131836,-0.5625 4.242187,-1.6875 1.107422,-1.125 1.664063,-2.5576172 1.664063,-4.3007812 z M 51.770107,0.00145781 H 49.039638 V -13.756355 l -2.648437,1.148438 v -2.367188 c 1.007812,-0.319336 1.898437,-0.823242 2.671875,-1.511718 h 2.707031 z m 9.585938,-9.46875001 c 1.889648,-0.7734378 3.776367,-1.1601558 5.660156,-1.1601558 2.554687,0 4.582031,0.500976 6.082031,1.4999996 1.458984,0.9697265 2.191406,2.2441406 2.191406,3.8203125 0,1.640625 -0.732422,2.9765625 -2.191406,4.0078125 -1.453125,1.03124996 -3.395508,1.54687496 -5.824219,1.54687496 -3.914062,0 -6.966797,-1.11328125 -9.152343,-3.33984376 l 2.132812,-1.4648437 c 1.749024,1.6113281 4.072266,2.4140625 6.972656,2.4140625 1.623047,0 2.90625,-0.2871094 3.84375,-0.8671875 0.94336,-0.5859375 1.417969,-1.350586 1.417969,-2.296875 0,-0.9052735 -0.500976,-1.6347657 -1.5,-2.1914063 -0.993164,-0.5537109 -2.390625,-0.8320312 -4.195312,-0.8320312 -2.0625,0 -4.051758,0.4921875 -5.964844,1.4765625 l -2.320313,-1.2773438 2.566407,-8.3554683 H 74.05917 v 2.484375 H 62.926357 Z m 0,0"
       style="fill:#000000;fill-opacity:1;fill-rule:nonzero;stroke:none"
       aria-label="                              2015"
       transform="matrix(1.3333333,0,0,1.3333333,1052.7505,531.6504)" />
    <path
       id="path58"
       d="m 16.277859,-11.946758 c -2.313373,-1.174155 -4.667849,-1.763816 -7.0699382,-1.768267 -1.6000946,8.45e-4 -2.8225984,0.186836 -3.6715615,0.557101 -0.8473741,0.372727 -1.2742879,0.888973 -1.2742297,1.548023 -4.078e-4,0.690735 0.4520961,1.197163 1.3591008,1.521743 0.6468142,0.2240496 1.7025834,0.3793516 3.17223,0.4627279 2.1610396,0.1496175 3.5830496,0.2672365 4.2725416,0.3521403 1.949835,0.2545917 3.391738,0.7325016 4.328169,1.4321404 0.937149,0.7061506 1.403475,1.7093024 1.402158,3.014378 0.0018,1.644804 -0.732895,2.9212147 -2.198481,3.83256582 C 15.128211,-0.0837267 13.026611,0.36644361 10.288127,0.35948347 6.3028609,0.36587823 3.2041118,-0.50696334 0.99434069,-2.2606303 L 2.4066417,-4.1349274 c 2.4468909,1.4889844 5.0819042,2.2322971 7.9017063,2.2355774 1.821897,0.00242 3.23791,-0.245738 4.24645,-0.7469287 0.959781,-0.5010952 1.436912,-1.1718167 1.433856,-2.0137535 0.0032,-0.9889327 -0.627432,-1.6523805 -1.885288,-1.9910603 C 13.437829,-6.8177203 11.653437,-6.9943034 8.7510633,-7.1848921 6.1814399,-7.3462075 4.3750764,-7.6864538 3.3344343,-8.20722 2.1325546,-8.8156846 1.5347169,-9.8280845 1.5393321,-11.246881 c 4.694e-4,-1.468428 0.6838357,-2.624511 2.0534323,-3.473888 1.3639572,-0.852711 3.2969708,-1.277731 5.8015022,-1.27665 3.3667204,0.0024 6.1906664,0.773669 8.4693774,2.315439 z m 0,0"
       style="fill:#000000;fill-opacity:1;fill-rule:nonzero;stroke:none"
       aria-label="S"
       transform="matrix(0.72320473,-1.1201574,1.1201574,0.72320473,561.8444,367.71747)" />
    <path
       id="path59"
       d="m 20.174173,-5.0501363 c 5.45e-4,1.6257521 -0.785411,2.9379995 -2.36045,3.9427617 -1.608105,1.05187646 -3.756198,1.57813263 -6.44428,1.57876852 C 8.6791231,0.47392059 6.5137294,-0.05528409 4.8751527,-1.1139823 3.2890155,-2.1287731 2.4991093,-3.4404402 2.4956331,-5.0560442 l 0.00626,-10.5603278 2.5943199,0.0019 -0.012005,9.9361725 c 0.00376,1.2164779 0.5389892,2.1450059 1.6109979,2.7964262 1.070118,0.6491824 2.6268188,0.9754589 4.6745781,0.975048 2.033136,4.386e-4 3.580158,-0.3247968 4.638828,-0.9738155 1.056433,-0.6471279 1.583885,-1.5798762 1.582011,-2.7941163 l 0.01201,-9.9361729 2.577805,4.89e-4 z m 0,0"
       style="fill:#000000;fill-opacity:1;fill-rule:nonzero;stroke:none"
       aria-label="U"
       transform="matrix(0.86051974,-1.0184712,1.0184712,0.86051974,582.8808,336.2324)" />
    <path
       id="path60"
       d="M 20.335867,0.00396 17.149581,-0.00275581 5.1848356,-12.804122 5.1856955,-0.00228471 2.6134934,-0.00649939 2.6131311,-15.620959 l 3.2115281,0.01375 11.9237788,12.8117106 -0.0017,-12.8183896 2.588754,0.0034 z m 0,0"
       style="fill:#000000;fill-opacity:1;fill-rule:nonzero;stroke:none"
       aria-label="N"
       transform="matrix(0.98868772,-0.89458056,0.89458056,0.98868772,609.97267,305.278)" />
    <path
       id="path61"
       d="M 20.33275,0.0031026 17.147235,0.00689855 5.1907889,-12.810258 l 0.00138,12.80363944 -2.577738,0.00850363 0.00614,-15.61195107 3.2114721,-2.06e-4 11.914197,12.8166033 0.0053,-12.8133043 2.587403,-0.0019 z m 0,0"
       style="fill:#000000;fill-opacity:1;fill-rule:nonzero;stroke:none"
       aria-label="N"
       transform="matrix(1.0996219,-0.75406196,0.75406196,1.0996219,641.16667,278.03187)" />
    <path
       id="path62"
       d="m 19.772652,-15.6072 -8.527789,9.4465623 -0.0027,6.15814403 -2.5943193,0.00298574 0.00271,-6.15814397 -8.54212237,-9.4473501 3.21275357,-0.0027 6.6432087,7.2920294 6.5955134,-7.2888434 z m 0,0"
       style="fill:#000000;fill-opacity:1;fill-rule:nonzero;stroke:none"
       aria-label="Y"
       transform="matrix(1.1871853,-0.60693402,0.60693402,1.1871853,675.80733,255.27933)" />
    <path
       id="path63"
       d="M 19.898547,-15.608862 11.499911,0.00156275 8.5193377,-2.8924884e-5 0.10180133,-15.605058 3.0082875,-15.605533 10.004379,-2.601859 17.01408,-15.600358 Z m 0,0"
       style="fill:#000000;fill-opacity:1;fill-rule:nonzero;stroke:none"
       aria-label="V"
       transform="matrix(1.252661,-0.45674731,0.45674731,1.252661,709.42973,238.83653)" />
    <path
       id="path64"
       d="M 20.102399,0.00574913 17.276722,0.00705788 15.457155,-3.4880253 4.9502269,-3.4926846 3.1509568,0.00217932 0.32527992,0.00348808 8.5705947,-15.611177 l 3.2578333,0.0016 z M 14.182877,-5.8481523 10.225884,-13.392119 6.2346195,-5.8432073 Z m 0,0"
       style="fill:#000000;fill-opacity:1;fill-rule:nonzero;stroke:none"
       aria-label="A"
       transform="matrix(1.2996054,-0.29799909,0.29799909,1.2996054,744.9356,226.5924)" />
    <path
       id="path65"
       d="M 17.25546,-6.6795981e-4 2.617559,-0.00143758 2.6158276,-15.606043 l 2.5688632,0.0041 0.00672,13.2479766 12.0690382,-0.00338 z m 0,0"
       style="fill:#000000;fill-opacity:1;fill-rule:nonzero;stroke:none"
       aria-label="L"
       transform="matrix(1.3257461,-0.14203849,0.14203849,1.3257461,782.26827,218.8112)" />
    <path
       id="path66"
       d="m 18.95312,-0.00306017 -16.3379699,0.00702692 0.00475,-15.61150275 15.7402019,-0.0091 -0.0089,2.344202 -13.1618464,0.0024 0.00619,3.9965182 9.1536114,0.00396 0.0028,2.3440119 -9.1536109,-0.00396 -0.00794,4.5710417 13.7596139,-3.871e-4 z m 0,0"
       style="fill:#000000;fill-opacity:1;fill-rule:nonzero;stroke:none"
       aria-label="E"
       transform="matrix(1.3331581,0.02161333,-0.02161333,1.3331581,816.61133,215.59053)" />
    <path
       id="path67"
       d="m 4.6442932,-12.654196 c -0.00512,1.564283 -0.9086065,2.348635 -2.7049229,2.349547 l -0.5072519,-0.0071 -3.778e-4,-1.272173 c 1.0844524,0.007 1.6257538,-0.286816 1.6294353,-0.885014 l 0.00182,-0.789427 -1.7794246,-0.0067 -0.00383,-2.343776 3.3570893,-0.0013 z m 0,0"
       style="fill:#000000;fill-opacity:1;fill-rule:nonzero;stroke:none"
       aria-label="’"
       transform="matrix(1.3264306,0.13549743,-0.13549743,1.3264306,854.6524,216.99547)" />
    <path
       id="path68"
       d="m 16.278041,-11.944238 c -2.318756,-1.172953 -4.678091,-1.764556 -7.0739966,-1.769627 -1.6007249,-7.09e-4 -2.8273189,0.184563 -3.6763406,0.558121 -0.8444074,0.366676 -1.2651766,0.882689 -1.258866,1.550345 -0.00178,0.68717 0.4525405,1.188792 1.3612334,1.511182 0.6429073,0.2314933 1.7014117,0.3899473 3.1749462,0.4724877 2.1553686,0.1480868 3.5765206,0.2678377 4.2623246,0.3535041 1.952273,0.2538533 3.396624,0.7333395 4.333051,1.4384586 0.932419,0.6999377 1.401536,1.7003171 1.403344,2.9959567 -0.0031,1.6489817 -0.73728,2.922601 -2.207059,3.8277406 -1.462896,0.9097539 -3.565242,1.36337003 -6.312222,1.36485682 C 6.3004564,0.35648824 3.2012498,-0.51914483 0.98797032,-2.2623631 L 2.4108399,-4.1317377 c 2.4431975,1.4858373 5.0744787,2.2298302 7.8932761,2.2291045 1.821361,-0.00102 3.240609,-0.2541612 4.258312,-0.7565581 0.954468,-0.4899208 1.432505,-1.1545958 1.434677,-1.9911509 -0.0049,-0.9934285 -0.637483,-1.6569651 -1.897778,-1.9906095 C 13.4442,-6.8132971 11.665246,-6.9908584 8.7618973,-7.1765099 6.186022,-7.3521182 4.3822318,-7.7009632 3.3476524,-8.2224776 2.1455022,-8.8214183 1.5431114,-9.8313366 1.5422202,-11.258548 c -0.00195,-1.462837 0.6807589,-2.618805 2.0521285,-3.462722 1.3673612,-0.849099 3.3018659,-1.275572 5.8040812,-1.276545 3.3692141,0.0042 6.1877361,0.77391 8.4584381,2.308712 z m 0,0"
       style="fill:#000000;fill-opacity:1;fill-rule:nonzero;stroke:none"
       aria-label="S"
       transform="matrix(1.3081154,0.25809297,-0.25809297,1.3081154,873.50653,218.9896)" />
    <path
       id="path69"
       d="m 18.358106,-13.259641 -13.1574584,-0.0013 -0.00873,3.9919758 9.1547734,-0.00266 0.0033,2.345212 -9.1547729,0.00266 -6.912e-4,6.92497815 -2.5760446,0.00331247 0.00275,-15.60737742 15.7335027,-0.002 z m 0,0"
       style="fill:#000000;fill-opacity:1;fill-rule:nonzero;stroke:none"
       aria-label=" F"
       transform="matrix(1.2184694,0.54139635,-0.54139635,1.2184694,940.0228,236.9948)" />
    <path
       id="path70"
       d="M 5.1894223,-9.9338233e-4 2.6078905,-0.00146807 l 0.00223,-15.60984093 2.5815318,4.74e-4 z m 0,0"
       style="fill:#000000;fill-opacity:1;fill-rule:nonzero;stroke:none"
       aria-label="I"
       transform="matrix(1.1622209,0.65346796,-0.65346796,1.1622209,972.61653,252.42253)" />
    <path
       id="path71"
       d="M 20.330604,0.0044843 17.144204,0.00205045 5.1905711,-12.803502 l 0.00491,12.80698487 -2.5815583,8.7265e-4 -0.00187,-15.60648852 3.2123055,-0.0015 11.9209687,12.7999245 -0.0049,-12.8069845 2.588318,0.0087 z m 0,0"
       style="fill:#000000;fill-opacity:1;fill-rule:nonzero;stroke:none"
       aria-label="N"
       transform="matrix(1.0891983,0.76904151,-0.76904151,1.0891983,991.26173,262.9616)" />
    <path
       id="path72"
       d="M 18.943603,-0.00172688 2.6131768,0.00178062 2.6129256,-15.615251 l 15.7415654,-0.0033 7.42e-4,2.355439 -13.1622428,0.0037 -0.00177,3.9974846 9.1481988,-0.00614 0.0014,2.3388813 -9.148199,0.00614 -8.938e-4,4.5697866 13.7511018,-0.00386 z m 0,0"
       style="fill:#000000;fill-opacity:1;fill-rule:nonzero;stroke:none"
       aria-label="E"
       transform="matrix(0.98148602,0.90247602,-0.90247602,0.98148602,1024.6595,287.54227)" />
    <path
       id="path73"
       d="m 16.275282,-11.942394 c -2.314925,-1.17599 -4.669428,-1.762672 -7.0679745,-1.763842 -1.6021936,0.0029 -2.8258197,0.189304 -3.6712127,0.554959 -0.8450586,0.369786 -1.2687982,0.886278 -1.2712185,1.549478 -4.142e-4,0.687977 0.454124,1.193633 1.3610482,1.510939 0.650115,0.2258668 1.7041625,0.3836964 3.1643744,0.4753869 2.1607951,0.1451219 3.5855121,0.26047 4.2760471,0.3438123 1.948049,0.2641876 3.3898,0.7439516 4.32369,1.4456536 0.938354,0.7054974 1.405671,1.7026947 1.406415,2.9953874 -0.0013,1.6524185 -0.733407,2.9296242 -2.200096,3.83608094 -1.468921,0.9045591 -3.570743,1.35947123 -6.308032,1.35870904 C 6.2958425,0.36527222 3.2010485,-0.50856188 0.99757901,-2.2588954 L 2.4085738,-4.1356035 c 2.4423494,1.4919788 5.0736328,2.2370706 7.8960822,2.2371729 1.820841,0.00222 3.239015,-0.2456196 4.24626,-0.7428475 0.96182,-0.4935498 1.441829,-1.1621631 1.442261,-2.0039424 7.84e-4,-0.9914511 -0.628855,-1.6575137 -1.890481,-1.9918262 C 13.44387,-6.8164835 11.66044,-6.9983939 8.7543026,-7.1850099 6.186014,-7.3574122 4.3809498,-7.7038414 3.3416763,-8.2182704 2.1396819,-8.8172085 1.5382088,-9.8284845 1.5334615,-11.247634 c 0.0033,-1.473839 0.6910715,-2.631067 2.0629945,-3.475813 1.3655614,-0.846309 3.3016355,-1.269096 5.7999629,-1.267692 3.3686801,-0.0046 6.1865771,0.760681 8.4581541,2.299741 z m 0,0"
       style="fill:#000000;fill-opacity:1;fill-rule:nonzero;stroke:none"
       aria-label="S"
       transform="matrix(0.86364841,1.0158195,-1.0158195,0.86364841,1052.086,313.668)" />
    <path
       id="path74"
       d="m 17.932683,-13.263597 -7.465727,-9.23e-4 0.007,13.2640750526 -2.5871645,-6.24871e-5 -0.007,-13.2640755655 -7.45595997,0.0056 0.007169,-2.343417 17.50885047,-0.0046 z m 0,0"
       style="fill:#000000;fill-opacity:1;fill-rule:nonzero;stroke:none"
       aria-label="T"
       transform="matrix(0.73683734,1.1112374,-1.1112374,0.73683734,1076.0944,343.02533)" />
  </g>
</svg>
